<svg id="visual" viewBox="0 0 900 600" width="900" height="600" xmlns="http://www.w3.org/2000/svg" xmlns:xlink="http://www.w3.org/1999/xlink" version="1.1"><path d="M0 456L21.5 474.8C43 493.7 86 531.3 128.8 542.2C171.7 553 214.3 537 257.2 524.8C300 512.7 343 504.3 385.8 507.8C428.7 511.3 471.3 526.7 514.2 526.3C557 526 600 510 642.8 494.3C685.7 478.7 728.3 463.3 771.2 460.5C814 457.7 857 467.3 878.5 472.2L900 477L900 601L878.5 601C857 601 814 601 771.2 601C728.3 601 685.7 601 642.8 601C600 601 557 601 514.2 601C471.3 601 428.7 601 385.8 601C343 601 300 601 257.2 601C214.3 601 171.7 601 128.8 601C86 601 43 601 21.5 601L0 601Z" fill="#FFFFFF" stroke-linecap="round" stroke-linejoin="miter"></path></svg>