<svg id="visual" viewBox="0 0 960 540" width="960" height="540" xmlns="http://www.w3.org/2000/svg" xmlns:xlink="http://www.w3.org/1999/xlink" version="1.1"><rect x="0" y="0" width="960" height="540" fill="#001220"></rect><path d="M0 453L12.3 453.2C24.7 453.3 49.3 453.7 74 449.5C98.7 445.3 123.3 436.7 148 430.7C172.7 424.7 197.3 421.3 221.8 419.5C246.3 417.7 270.7 417.3 295.2 416.3C319.7 415.3 344.3 413.7 369 413.8C393.7 414 418.3 416 443 417.8C467.7 419.7 492.3 421.3 517 422.2C541.7 423 566.3 423 591 427.2C615.7 431.3 640.3 439.7 664.8 440C689.3 440.3 713.7 432.7 738.2 430.5C762.7 428.3 787.3 431.7 812 433.5C836.7 435.3 861.3 435.7 886 433C910.7 430.3 935.3 424.7 947.7 421.8L960 419L960 541L947.7 541C935.3 541 910.7 541 886 541C861.3 541 836.7 541 812 541C787.3 541 762.7 541 738.2 541C713.7 541 689.3 541 664.8 541C640.3 541 615.7 541 591 541C566.3 541 541.7 541 517 541C492.3 541 467.7 541 443 541C418.3 541 393.7 541 369 541C344.3 541 319.7 541 295.2 541C270.7 541 246.3 541 221.8 541C197.3 541 172.7 541 148 541C123.3 541 98.7 541 74 541C49.3 541 24.7 541 12.3 541L0 541Z" fill="#fa7268"></path><path d="M0 453L12.3 456.8C24.7 460.7 49.3 468.3 74 470.2C98.7 472 123.3 468 148 465.8C172.7 463.7 197.3 463.3 221.8 465C246.3 466.7 270.7 470.3 295.2 472.3C319.7 474.3 344.3 474.7 369 468.2C393.7 461.7 418.3 448.3 443 442.2C467.7 436 492.3 437 517 440.7C541.7 444.3 566.3 450.7 591 455.8C615.7 461 640.3 465 664.8 461.5C689.3 458 713.7 447 738.2 442.2C762.7 437.3 787.3 438.7 812 443.5C836.7 448.3 861.3 456.7 886 461.5C910.7 466.3 935.3 467.7 947.7 468.3L960 469L960 541L947.7 541C935.3 541 910.7 541 886 541C861.3 541 836.7 541 812 541C787.3 541 762.7 541 738.2 541C713.7 541 689.3 541 664.8 541C640.3 541 615.7 541 591 541C566.3 541 541.7 541 517 541C492.3 541 467.7 541 443 541C418.3 541 393.7 541 369 541C344.3 541 319.7 541 295.2 541C270.7 541 246.3 541 221.8 541C197.3 541 172.7 541 148 541C123.3 541 98.7 541 74 541C49.3 541 24.7 541 12.3 541L0 541Z" fill="#e95a51"></path><path d="M0 467L12.3 470.5C24.7 474 49.3 481 74 480.5C98.7 480 123.3 472 148 469.8C172.7 467.7 197.3 471.3 221.8 471.7C246.3 472 270.7 469 295.2 467C319.7 465 344.3 464 369 463.8C393.7 463.7 418.3 464.3 443 470.3C467.7 476.3 492.3 487.7 517 491.3C541.7 495 566.3 491 591 487.5C615.7 484 640.3 481 664.8 479.8C689.3 478.7 713.7 479.3 738.2 481.8C762.7 484.3 787.3 488.7 812 489C836.7 489.3 861.3 485.7 886 484.2C910.7 482.7 935.3 483.3 947.7 483.7L960 484L960 541L947.7 541C935.3 541 910.7 541 886 541C861.3 541 836.7 541 812 541C787.3 541 762.7 541 738.2 541C713.7 541 689.3 541 664.8 541C640.3 541 615.7 541 591 541C566.3 541 541.7 541 517 541C492.3 541 467.7 541 443 541C418.3 541 393.7 541 369 541C344.3 541 319.7 541 295.2 541C270.7 541 246.3 541 221.8 541C197.3 541 172.7 541 148 541C123.3 541 98.7 541 74 541C49.3 541 24.7 541 12.3 541L0 541Z" fill="#d9413b"></path><path d="M0 502L12.3 500.5C24.7 499 49.3 496 74 497.7C98.7 499.3 123.3 505.7 148 510.2C172.7 514.7 197.3 517.3 221.8 518C246.3 518.7 270.7 517.3 295.2 516.8C319.7 516.3 344.3 516.7 369 513.7C393.7 510.7 418.3 504.3 443 504C467.7 503.7 492.3 509.3 517 510.8C541.7 512.3 566.3 509.7 591 509.2C615.7 508.7 640.3 510.3 664.8 512.7C689.3 515 713.7 518 738.2 516.7C762.7 515.3 787.3 509.7 812 505.2C836.7 500.7 861.3 497.3 886 499.5C910.7 501.7 935.3 509.3 947.7 513.2L960 517L960 541L947.7 541C935.3 541 910.7 541 886 541C861.3 541 836.7 541 812 541C787.3 541 762.7 541 738.2 541C713.7 541 689.3 541 664.8 541C640.3 541 615.7 541 591 541C566.3 541 541.7 541 517 541C492.3 541 467.7 541 443 541C418.3 541 393.7 541 369 541C344.3 541 319.7 541 295.2 541C270.7 541 246.3 541 221.8 541C197.3 541 172.7 541 148 541C123.3 541 98.7 541 74 541C49.3 541 24.7 541 12.3 541L0 541Z" fill="#c72424"></path></svg>